<?xml version="1.0" encoding="UTF-8" standalone="no"?>
<!-- Created with Inkscape (http://www.inkscape.org/) -->

<svg
   width="512"
   height="512"
   viewBox="0 0 135.46666 135.46667"
   version="1.1"
   id="svg1740"
   inkscape:version="1.1.2 (b8e25be833, 2022-02-05)"
   sodipodi:docname="minimap_racer.svg"
   inkscape:export-filename="C:\Diplomka\Brooom\Brooom\Sprites\minimap_racer.png"
   inkscape:export-xdpi="96"
   inkscape:export-ydpi="96"
   xmlns:inkscape="http://www.inkscape.org/namespaces/inkscape"
   xmlns:sodipodi="http://sodipodi.sourceforge.net/DTD/sodipodi-0.dtd"
   xmlns="http://www.w3.org/2000/svg"
   xmlns:svg="http://www.w3.org/2000/svg">
  <sodipodi:namedview
     id="namedview1742"
     pagecolor="#ffffff"
     bordercolor="#666666"
     borderopacity="1.0"
     inkscape:pageshadow="2"
     inkscape:pageopacity="0.0"
     inkscape:pagecheckerboard="0"
     inkscape:document-units="mm"
     showgrid="false"
     units="px"
     inkscape:zoom="0.733172"
     inkscape:cx="443.96131"
     inkscape:cy="370.99071"
     inkscape:window-width="1920"
     inkscape:window-height="1009"
     inkscape:window-x="-8"
     inkscape:window-y="-8"
     inkscape:window-maximized="1"
     inkscape:current-layer="layer1" />
  <defs
     id="defs1737" />
  <g
     inkscape:label="Layer 1"
     inkscape:groupmode="layer"
     id="layer1">
    <path
       id="rect1823"
       style="fill:#000000;stroke-width:0.611288;stroke-linecap:round"
       d="m 67.733337,1.0583339 c -1.675807,0.13253 -3.303452,1.31493 -4.368217,3.59085 C 41.382849,64.222414 40.966408,64.205612 18.594993,124.2813 c -7.452091,20.51197 23.349665,3.93981 49.138344,1.39623 25.788671,2.54358 56.590433,19.11574 49.138333,-1.39623 C 94.500265,64.205618 94.083822,64.222414 72.101551,4.6491839 c -1.064763,-2.27592 -2.692408,-3.45832 -4.368214,-3.59085 z" />
    <path
       id="rect1823-6"
       style="fill:#ffffff;stroke-width:0.546581;stroke-linecap:round"
       d="m 67.733336,6.350005 c -1.455307,0.12201 -2.868788,1.21057 -3.793452,3.30586 -19.089867,54.845197 -19.451512,54.829727 -38.879319,110.137495 -6.471554,18.88403 20.277339,3.62713 42.672771,1.28542 22.395424,2.34171 49.144314,17.59861 42.672764,-1.28542 C 90.978298,64.485592 90.616651,64.501062 71.526784,9.655865 70.602122,7.560575 69.188641,6.472015 67.733336,6.350005 Z" />
  </g>
</svg>
