<?xml version="1.0" encoding="UTF-8" standalone="no"?>
<!-- Created with Inkscape (http://www.inkscape.org/) -->

<svg
   width="2048"
   height="2048"
   viewBox="0 0 541.86665 541.86665"
   version="1.1"
   id="svg5"
   inkscape:export-filename="C:\Diplomka\Brooom\Brooom\Sprites\starting_zone_icon.png"
   inkscape:export-xdpi="96"
   inkscape:export-ydpi="96"
   inkscape:version="1.1.2 (b8e25be833, 2022-02-05)"
   sodipodi:docname="minimap_starting_zone.svg"
   xmlns:inkscape="http://www.inkscape.org/namespaces/inkscape"
   xmlns:sodipodi="http://sodipodi.sourceforge.net/DTD/sodipodi-0.dtd"
   xmlns="http://www.w3.org/2000/svg"
   xmlns:svg="http://www.w3.org/2000/svg">
  <sodipodi:namedview
     id="namedview7"
     pagecolor="#ffffff"
     bordercolor="#666666"
     borderopacity="1.0"
     inkscape:pageshadow="2"
     inkscape:pageopacity="0.0"
     inkscape:pagecheckerboard="0"
     inkscape:document-units="px"
     showgrid="false"
     units="px"
     inkscape:zoom="0.22802104"
     inkscape:cx="901.23262"
     inkscape:cy="1048.1489"
     inkscape:window-width="1920"
     inkscape:window-height="1009"
     inkscape:window-x="-8"
     inkscape:window-y="-8"
     inkscape:window-maximized="1"
     inkscape:current-layer="layer1" />
  <defs
     id="defs2" />
  <g
     inkscape:label="Layer 1"
     inkscape:groupmode="layer"
     id="layer1">
    <path
       id="path5152"
       style="fill:#ffffff;stroke:#000000;stroke-width:9.99999982;stroke-linecap:butt;stroke-linejoin:miter;stroke-opacity:1;stroke-miterlimit:4;stroke-dasharray:none"
       d="M 1024 0 A 1024 1024 0 0 0 886.23633 9.7636719 L 768 128 L 695 55 A 1024 1024 0 0 0 518.01172 134.01172 L 640 256 L 512 384 L 384 256 L 487.27344 152.72656 A 1024 1024 0 0 0 152.72656 487.27344 L 256 384 L 384 512 L 256 640 L 134.01172 518.01172 A 1024 1024 0 0 0 55 695 L 128 768 L 9.7636719 886.23633 A 1024 1024 0 0 0 0 1024 A 1024 1024 0 0 0 9.7636719 1161.7637 L 128 1280 L 55 1353 A 1024 1024 0 0 0 134.01172 1529.9883 L 256 1408 L 384 1536 L 256 1664 L 152.72656 1560.7266 A 1024 1024 0 0 0 487.27344 1895.2734 L 384 1792 L 512 1664 L 640 1792 L 518.01172 1913.9883 A 1024 1024 0 0 0 695 1993 L 768 1920 L 886.23633 2038.2363 A 1024 1024 0 0 0 1024 2048 A 1024 1024 0 0 0 1161.7637 2038.2363 L 1280 1920 L 1353 1993 A 1024 1024 0 0 0 1529.9883 1913.9883 L 1408 1792 L 1536 1664 L 1664 1792 L 1560.7266 1895.2734 A 1024 1024 0 0 0 1895.2734 1560.7266 L 1792 1664 L 1664 1536 L 1792 1408 L 1913.9883 1529.9883 A 1024 1024 0 0 0 1993 1353 L 1920 1280 L 2038.2363 1161.7637 A 1024 1024 0 0 0 2048 1024 A 1024 1024 0 0 0 2038.2363 886.23633 L 1920 768 L 1993 695 A 1024 1024 0 0 0 1913.9883 518.01172 L 1792 640 L 1664 512 L 1792 384 L 1895.2734 487.27344 A 1024 1024 0 0 0 1560.7266 152.72656 L 1664 256 L 1536 384 L 1408 256 L 1529.9883 134.01172 A 1024 1024 0 0 0 1353 55 L 1280 128 L 1161.7637 9.7636719 A 1024 1024 0 0 0 1024 0 z M 1024 128 L 1152 256 L 1024 384 L 896 256 L 1024 128 z M 768 384 L 896 512 L 768 640 L 640 512 L 768 384 z M 1280 384 L 1408 512 L 1280 640 L 1152 512 L 1280 384 z M 512 640 L 640 768 L 512 896 L 384 768 L 512 640 z M 1024 640 L 1152 768 L 1024 896 L 896 768 L 1024 640 z M 1536 640 L 1664 768 L 1536 896 L 1408 768 L 1536 640 z M 256 896 L 384 1024 L 256 1152 L 128 1024 L 256 896 z M 768 896 L 896 1024 L 768 1152 L 640 1024 L 768 896 z M 1280 896 L 1408 1024 L 1280 1152 L 1152 1024 L 1280 896 z M 1792 896 L 1920 1024 L 1792 1152 L 1664 1024 L 1792 896 z M 512 1152 L 640 1280 L 512 1408 L 384 1280 L 512 1152 z M 1024 1152 L 1152 1280 L 1024 1408 L 896 1280 L 1024 1152 z M 1536 1152 L 1664 1280 L 1536 1408 L 1408 1280 L 1536 1152 z M 768 1408 L 896 1536 L 768 1664 L 640 1536 L 768 1408 z M 1280 1408 L 1408 1536 L 1280 1664 L 1152 1536 L 1280 1408 z M 1024 1664 L 1152 1792 L 1024 1920 L 896 1792 L 1024 1664 z "
       transform="scale(0.26458333)" />
  </g>
</svg>
