<?xml version="1.0" encoding="UTF-8" standalone="no"?>
<!-- Created with Inkscape (http://www.inkscape.org/) -->

<svg
   width="512"
   height="512"
   viewBox="0 0 135.46666 135.46667"
   version="1.1"
   id="svg5"
   inkscape:version="1.1.2 (b8e25be833, 2022-02-05)"
   sodipodi:docname="minimap_border.svg"
   xmlns:inkscape="http://www.inkscape.org/namespaces/inkscape"
   xmlns:sodipodi="http://sodipodi.sourceforge.net/DTD/sodipodi-0.dtd"
   xmlns="http://www.w3.org/2000/svg"
   xmlns:svg="http://www.w3.org/2000/svg">
  <sodipodi:namedview
     id="namedview7"
     pagecolor="#ffffff"
     bordercolor="#666666"
     borderopacity="1.0"
     inkscape:pageshadow="2"
     inkscape:pageopacity="0.0"
     inkscape:pagecheckerboard="0"
     inkscape:document-units="mm"
     showgrid="false"
     units="px"
     inkscape:zoom="0.733172"
     inkscape:cx="-77.062409"
     inkscape:cy="268.69548"
     inkscape:window-width="1920"
     inkscape:window-height="1009"
     inkscape:window-x="-8"
     inkscape:window-y="-8"
     inkscape:window-maximized="1"
     inkscape:current-layer="layer1" />
  <defs
     id="defs2" />
  <g
     inkscape:label="Layer 1"
     inkscape:groupmode="layer"
     id="layer1">
    <path
       id="path868"
       style="fill:#000000;stroke-width:0.661458;stroke-linecap:round"
       d="M 67.733333,8.333333e-7 A 67.73333,67.73333 0 0 0 8.5333332e-7,67.733336 67.73333,67.73333 0 0 0 67.733333,135.46667 67.73333,67.73333 0 0 0 135.46667,67.733336 67.73333,67.73333 0 0 0 67.733333,8.333333e-7 Z m 0,7.9374999666667 A 59.795833,59.795833 0 0 1 127.52917,67.733336 59.795833,59.795833 0 0 1 67.733333,127.52917 59.795833,59.795833 0 0 1 7.9375008,67.733336 59.795833,59.795833 0 0 1 67.733333,7.9375008 Z" />
    <path
       id="path1070"
       style="fill:#333333;stroke-width:0.661458;stroke-linecap:round"
       d="M 67.733333,1.5875033 A 66.145835,66.145835 0 0 0 1.5875008,67.733335 66.145835,66.145835 0 0 0 67.733333,133.87916 66.145835,66.145835 0 0 0 133.87917,67.733335 66.145835,66.145835 0 0 0 67.733333,1.5875033 Z m 0,6.3499999 A 59.795833,59.795833 0 0 1 127.52917,67.733335 59.795833,59.795833 0 0 1 67.733333,127.52917 59.795833,59.795833 0 0 1 7.9375008,67.733335 59.795833,59.795833 0 0 1 67.733333,7.9375032 Z" />
    <path
       id="path1210"
       style="fill:#666666;stroke-width:0.661458;stroke-linecap:round"
       d="M 67.733333,3.1749983 A 64.558333,64.558333 0 0 0 3.1750008,67.733328 64.558333,64.558333 0 0 0 67.733333,132.29167 64.558333,64.558333 0 0 0 132.29167,67.733328 64.558333,64.558333 0 0 0 67.733333,3.1749983 Z m 0,4.7625 A 59.795833,59.795833 0 0 1 127.52917,67.733328 59.795833,59.795833 0 0 1 67.733333,127.52917 59.795833,59.795833 0 0 1 7.9375008,67.733328 59.795833,59.795833 0 0 1 67.733333,7.9374983 Z" />
    <path
       id="path1332"
       style="fill:#999999;stroke-width:0.661458;stroke-linecap:round"
       d="M 67.733333,4.7624983 A 62.970833,62.970833 0 0 0 4.7625008,67.733336 62.970833,62.970833 0 0 0 67.733333,130.70417 62.970833,62.970833 0 0 0 130.70417,67.733336 62.970833,62.970833 0 0 0 67.733333,4.7624983 Z m 0,3.175 A 59.795833,59.795833 0 0 1 127.52917,67.733336 59.795833,59.795833 0 0 1 67.733333,127.52917 59.795833,59.795833 0 0 1 7.9375008,67.733336 59.795833,59.795833 0 0 1 67.733333,7.9374983 Z" />
    <path
       id="path1534"
       style="fill:#cccccc;stroke-width:0.661458;stroke-linecap:round"
       d="M 67.733333,6.3500008 A 61.383335,61.383335 0 0 0 6.3500008,67.733334 61.383335,61.383335 0 0 0 67.733333,129.11667 61.383335,61.383335 0 0 0 129.11667,67.733334 61.383335,61.383335 0 0 0 67.733333,6.3500008 Z m 0,1.5875 A 59.795833,59.795833 0 0 1 127.52917,67.733334 59.795833,59.795833 0 0 1 67.733333,127.52917 59.795833,59.795833 0 0 1 7.9375008,67.733334 59.795833,59.795833 0 0 1 67.733333,7.9375008 Z"
       inkscape:export-filename="C:\Users\Mstol\Documents\minimap_border.png"
       inkscape:export-xdpi="96"
       inkscape:export-ydpi="96" />
  </g>
</svg>
