<?xml version="1.0" encoding="UTF-8" standalone="no"?>
<!-- Created with Inkscape (http://www.inkscape.org/) -->

<svg
   width="512"
   height="512"
   viewBox="0 0 135.46666 135.46667"
   version="1.1"
   id="svg5"
   inkscape:version="1.1.2 (b8e25be833, 2022-02-05)"
   sodipodi:docname="square_round_corners.svg"
   inkscape:export-filename="C:\Diplomka\Brooom\Brooom\Sprites\HUD\square_round_corners_border_wide.png"
   inkscape:export-xdpi="96"
   inkscape:export-ydpi="96"
   xmlns:inkscape="http://www.inkscape.org/namespaces/inkscape"
   xmlns:sodipodi="http://sodipodi.sourceforge.net/DTD/sodipodi-0.dtd"
   xmlns="http://www.w3.org/2000/svg"
   xmlns:svg="http://www.w3.org/2000/svg">
  <sodipodi:namedview
     id="namedview7"
     pagecolor="#ffffff"
     bordercolor="#666666"
     borderopacity="1.0"
     inkscape:pageshadow="2"
     inkscape:pageopacity="0.0"
     inkscape:pagecheckerboard="0"
     inkscape:document-units="mm"
     showgrid="false"
     units="px"
     inkscape:zoom="0.733172"
     inkscape:cx="423.50226"
     inkscape:cy="110.47885"
     inkscape:window-width="1920"
     inkscape:window-height="1009"
     inkscape:window-x="-8"
     inkscape:window-y="-8"
     inkscape:window-maximized="1"
     inkscape:current-layer="layer1" />
  <defs
     id="defs2" />
  <g
     inkscape:label="Layer 1"
     inkscape:groupmode="layer"
     id="layer1">
    <rect
       style="fill:#000000;stroke-width:0.661458;stroke-linecap:round"
       id="rect900"
       width="135.46666"
       height="135.46666"
       x="158.06319"
       y="-29.23086"
       ry="18.765491"
       inkscape:export-filename="C:\Diplomka\Brooom\Brooom\Sprites\HUD\square_round_corners.png"
       inkscape:export-xdpi="96"
       inkscape:export-ydpi="96" />
    <path
       id="rect900-40"
       style="fill:#ffffff;stroke-width:2.5;stroke-linecap:round"
       d="M 70.923828 0 C 31.631549 9.4739031e-15 2.1949396e-16 31.631549 0 70.923828 L 0 441.07617 C 9.4739031e-15 480.36845 31.631549 512 70.923828 512 L 441.07617 512 C 480.36845 512 512 480.36845 512 441.07617 L 512 70.923828 C 512 31.631549 480.36845 2.1949396e-16 441.07617 0 L 70.923828 0 z M 106.92383 36 L 405.07617 36 C 444.36845 36 476 67.631549 476 106.92383 L 476 405.07617 C 476 444.36845 444.36845 476 405.07617 476 L 106.92383 476 C 67.631549 476 36 444.36845 36 405.07617 L 36 106.92383 C 36 67.631549 67.631549 36 106.92383 36 z "
       transform="scale(0.26458333)" />
    <path
       id="rect900-4-0"
       style="fill:#000000;stroke-width:0.661458;stroke-linecap:round"
       d="m 161.31082,-112.95383 c -10.39608,0 -18.76526,8.36918 -18.76526,18.765266 V 3.7475827 c 0,10.3960803 8.36918,18.7652603 18.76526,18.7652603 h 97.93614 c 10.39608,0 18.76526,-8.36918 18.76526,-18.7652603 V -94.188564 c 0,-10.396086 -8.36918,-18.765266 -18.76526,-18.765266 z m 4.23334,4.23333 h 89.46947 c 10.39608,0 18.76526,8.36919 18.76526,18.76527 v 89.46948287 c 0,10.39607983 -8.36918,18.76526013 -18.76526,18.76526013 h -89.46947 c -10.39609,0 -18.76527,-8.3691803 -18.76527,-18.76526013 V -89.95523 c 0,-10.39608 8.36918,-18.76527 18.76527,-18.76527 z"
       inkscape:export-filename="C:\Diplomka\Brooom\Brooom\Sprites\HUD\square_round_corners_border.png"
       inkscape:export-xdpi="96"
       inkscape:export-ydpi="96" />
    <path
       id="rect900-4"
       style="fill:#ffffff;stroke-width:0.661458;stroke-linecap:round"
       d="m 240.70329,-59.905225 c -10.39608,0 -18.76526,8.369181 -18.76526,18.765263 v 97.936139 c 0,10.396075 8.36918,18.765255 18.76526,18.765255 h 97.93614 c 10.39608,0 18.76526,-8.36918 18.76526,-18.765255 v -97.936139 c 0,-10.396082 -8.36918,-18.765263 -18.76526,-18.765263 z m 4.23334,4.233334 h 89.46947 c 10.39608,0 18.76526,8.36918 18.76526,18.765262 v 89.469476 c 0,10.396075 -8.36918,18.765255 -18.76526,18.765255 h -89.46947 c -10.39609,0 -18.76527,-8.36918 -18.76527,-18.765255 v -89.469476 c 0,-10.396082 8.36918,-18.765262 18.76527,-18.765262 z"
       inkscape:export-filename="C:\Diplomka\Brooom\Brooom\Sprites\HUD\square_round_corners_border.png"
       inkscape:export-xdpi="96"
       inkscape:export-ydpi="96" />
  </g>
</svg>
