<?xml version="1.0" encoding="UTF-8" standalone="no"?>
<!-- Created with Inkscape (http://www.inkscape.org/) -->

<svg
   width="256"
   height="256"
   viewBox="0 0 67.733332 67.733335"
   version="1.1"
   id="svg5"
   inkscape:version="1.1.2 (b8e25be833, 2022-02-05)"
   sodipodi:docname="attractio-particle-blurred.svg"
   inkscape:export-filename="C:\Diplomka\Brooom\Brooom\Sprites\Particles\attractio-particle-blurred.png"
   inkscape:export-xdpi="96"
   inkscape:export-ydpi="96"
   xmlns:inkscape="http://www.inkscape.org/namespaces/inkscape"
   xmlns:sodipodi="http://sodipodi.sourceforge.net/DTD/sodipodi-0.dtd"
   xmlns="http://www.w3.org/2000/svg"
   xmlns:svg="http://www.w3.org/2000/svg">
  <sodipodi:namedview
     id="namedview7"
     pagecolor="#000000"
     bordercolor="#666666"
     borderopacity="1.0"
     inkscape:pageshadow="2"
     inkscape:pageopacity="0"
     inkscape:pagecheckerboard="true"
     inkscape:document-units="mm"
     showgrid="false"
     units="px"
     inkscape:zoom="1.0368618"
     inkscape:cx="145.14953"
     inkscape:cy="70.404754"
     inkscape:window-width="1920"
     inkscape:window-height="1009"
     inkscape:window-x="-8"
     inkscape:window-y="-1088"
     inkscape:window-maximized="1"
     inkscape:current-layer="layer1" />
  <defs
     id="defs2">
    <filter
       style="color-interpolation-filters:sRGB;"
       inkscape:label="Blur"
       id="filter3290"
       x="-0.25474527"
       y="-0.25474184"
       width="1.5094915"
       height="1.5094232">
      <feGaussianBlur
         stdDeviation="5 5"
         result="blur"
         id="feGaussianBlur3288" />
    </filter>
    <filter
       style="color-interpolation-filters:sRGB;"
       inkscape:label="Blur"
       id="filter958"
       x="-0.026666667"
       y="-0.026666667"
       width="1.0533333"
       height="1.0533333">
      <feGaussianBlur
         stdDeviation="2 2"
         result="blur"
         id="feGaussianBlur956" />
    </filter>
  </defs>
  <g
     inkscape:label="Layer 1"
     inkscape:groupmode="layer"
     id="layer1">
    <path
       id="path930"
       style="fill:#ffffff;stroke:none;stroke-width:21.2744;stroke-linecap:round;filter:url(#filter958)"
       d="M 128 38 A 90 90 0 0 0 38 128 A 90 90 0 0 0 128 218 A 90 90 0 0 0 218 128 A 90 90 0 0 0 128 38 z M 118.41992 59.611328 L 137.58008 59.611328 C 141.1319 59.611328 143.99219 61.440831 143.99219 63.712891 L 143.99219 158.69531 L 160.95312 158.69727 C 165.81775 158.71538 168.312 159.67033 168.34375 161.67383 C 168.37541 163.67733 165.94445 166.73085 160.95117 170.94336 L 134.94336 192.76758 C 129.1805 197.60374 126.09874 197.58788 120.35547 192.76562 L 94.355469 170.93555 C 85.241822 163.28341 85.602879 158.64087 94.359375 158.69141 L 112.00781 158.69141 L 112.00781 63.712891 C 112.00781 61.440831 114.86811 59.611328 118.41992 59.611328 z "
       transform="scale(0.26458333)" />
  </g>
</svg>
