<?xml version="1.0" encoding="UTF-8" standalone="no"?>
<!-- Created with Inkscape (http://www.inkscape.org/) -->

<svg
   width="256"
   height="256"
   viewBox="0 0 67.733332 67.733335"
   version="1.1"
   id="svg5"
   inkscape:version="1.1.2 (b8e25be833, 2022-02-05)"
   sodipodi:docname="nubes-maligna-particle.svg"
   inkscape:export-filename="C:\Diplomka\Brooom\Brooom\Sprites\Particles\nubes-maligna-particle.png"
   inkscape:export-xdpi="96"
   inkscape:export-ydpi="96"
   xmlns:inkscape="http://www.inkscape.org/namespaces/inkscape"
   xmlns:sodipodi="http://sodipodi.sourceforge.net/DTD/sodipodi-0.dtd"
   xmlns="http://www.w3.org/2000/svg"
   xmlns:svg="http://www.w3.org/2000/svg">
  <sodipodi:namedview
     id="namedview7"
     pagecolor="#000000"
     bordercolor="#666666"
     borderopacity="1.0"
     inkscape:pageshadow="2"
     inkscape:pageopacity="0"
     inkscape:pagecheckerboard="true"
     inkscape:document-units="mm"
     showgrid="false"
     units="px"
     inkscape:zoom="1.466344"
     inkscape:cx="166.05926"
     inkscape:cy="131.61987"
     inkscape:window-width="1920"
     inkscape:window-height="1009"
     inkscape:window-x="-8"
     inkscape:window-y="-8"
     inkscape:window-maximized="1"
     inkscape:current-layer="layer1" />
  <defs
     id="defs2">
    <filter
       style="color-interpolation-filters:sRGB;"
       inkscape:label="Blur"
       id="filter3290"
       x="-0.25474527"
       y="-0.25474184"
       width="1.5094915"
       height="1.5094232">
      <feGaussianBlur
         stdDeviation="5 5"
         result="blur"
         id="feGaussianBlur3288" />
    </filter>
  </defs>
  <g
     inkscape:label="Layer 1"
     inkscape:groupmode="layer"
     id="layer1">
    <g
       id="g958"
       transform="translate(0,-4.5054103)">
      <path
         id="path926"
         style="fill:#ffffff;stroke:none;stroke-width:0.276159;stroke-linecap:round;stroke-dasharray:1.10463, 1.10463"
         d="m 18.914091,29.619381 a 10.734897,8.9457471 0 0 0 -5.199165,7.650695 10.734897,8.9457471 0 0 0 0.244946,1.898591 10.734897,8.9457471 0 0 0 -10.2262489,8.930722 10.734897,8.9457471 0 0 0 10.7352619,8.945708 10.734897,8.9457471 0 0 0 3.28042,-0.433567 13.277373,8.9457471 0 0 0 9.620084,2.787944 13.277373,8.9457471 0 0 0 6.712252,-1.234033 12.806544,8.9457471 0 0 0 4.116543,0.480592 12.806544,8.9457471 0 0 0 11.041706,-4.425053 10.734897,8.9457471 0 0 0 4.024558,0.658873 10.734897,8.9457471 0 0 0 10.735262,-8.946224 10.734897,8.9457471 0 0 0 -9.431464,-8.879559 13.842367,8.9457471 0 0 0 -5.775359,-6.861598 14.980032,15.079238 0 0 1 -4.646226,9.776147 10.41658,11.882981 0 0 1 0.13694,1.912546 A 10.41658,11.882981 0 0 1 33.867183,53.764158 10.41658,11.882981 0 0 1 23.449732,41.881165 10.41658,11.882981 0 0 1 23.589775,39.971204 14.980032,15.079238 0 0 1 18.914091,29.619381 Z" />
      <path
         id="path1127-7-6"
         style="fill:#ffffff;stroke:none;stroke-width:0.252318;stroke-linecap:round;stroke-dasharray:1.00927, 1.00927;stroke-opacity:1"
         d="m 33.866913,17.34468 a 12.991501,13.077538 0 0 0 -12.991914,13.07717 12.991501,13.077538 0 0 0 4.078976,9.509728 9.0338266,10.30557 0 0 0 -0.121231,1.65633 9.0338266,10.30557 0 0 0 9.034169,10.305618 9.0338266,10.30557 0 0 0 9.033675,-10.305618 9.0338266,10.30557 0 0 0 -0.118766,-1.658794 12.991501,13.077538 0 0 0 4.076513,-9.507264 12.991501,13.077538 0 0 0 -12.991422,-13.07717 z m -4.302219,13.570471 a 3.0973118,3.1833483 0 0 1 3.097302,3.183052 3.0973118,3.1833483 0 0 1 -3.097302,3.183543 3.0973118,3.1833483 0 0 1 -3.097304,-3.183543 3.0973118,3.1833483 0 0 1 3.097304,-3.183052 z m 8.603946,0 a 3.0973118,3.1833483 0 0 1 3.097303,3.183052 3.0973118,3.1833483 0 0 1 -3.097303,3.183543 3.0973118,3.1833483 0 0 1 -3.097304,-3.183543 3.0973118,3.1833483 0 0 1 3.097304,-3.183052 z m -5.012358,8.810434 a 0.51621865,1.3765831 0 0 1 0.515971,1.376414 0.51621865,1.3765831 0 0 1 -0.515971,1.376908 0.51621865,1.3765831 0 0 1 -0.516462,-1.376908 0.51621865,1.3765831 0 0 1 0.516462,-1.376414 z m 1.42126,0 a 0.51621865,1.3765831 0 0 1 0.515972,1.376414 0.51621865,1.3765831 0 0 1 -0.515972,1.376908 0.51621865,1.3765831 0 0 1 -0.516462,-1.376908 0.51621865,1.3765831 0 0 1 0.516462,-1.376414 z m -7.156074,3.969574 h 0.0039 a 6.4452815,3.2005137 0 0 0 6.441503,3.142149 6.4452815,3.2005137 0 0 0 6.441008,-3.142149 h 0.0039 v 1.766227 0.05815 h -0.0039 a 6.4452815,3.2005137 0 0 1 -6.441008,3.142148 6.4452815,3.2005137 0 0 1 -6.441503,-3.142148 h -0.0039 v -0.05815 z" />
    </g>
  </g>
</svg>
