<?xml version="1.0" encoding="UTF-8" standalone="no"?>
<!-- Created with Inkscape (http://www.inkscape.org/) -->

<svg
   width="512"
   height="512"
   viewBox="0 0 135.46666 135.46667"
   version="1.1"
   id="svg5"
   inkscape:version="1.1.2 (b8e25be833, 2022-02-05)"
   sodipodi:docname="minimap_hoop.svg"
   xmlns:inkscape="http://www.inkscape.org/namespaces/inkscape"
   xmlns:sodipodi="http://sodipodi.sourceforge.net/DTD/sodipodi-0.dtd"
   xmlns="http://www.w3.org/2000/svg"
   xmlns:svg="http://www.w3.org/2000/svg">
  <sodipodi:namedview
     id="namedview7"
     pagecolor="#ffffff"
     bordercolor="#666666"
     borderopacity="1.0"
     inkscape:pageshadow="2"
     inkscape:pageopacity="0.0"
     inkscape:pagecheckerboard="0"
     inkscape:document-units="mm"
     showgrid="false"
     units="px"
     inkscape:zoom="1.0368618"
     inkscape:cx="213.62539"
     inkscape:cy="295.1213"
     inkscape:window-width="1920"
     inkscape:window-height="1009"
     inkscape:window-x="-8"
     inkscape:window-y="-8"
     inkscape:window-maximized="1"
     inkscape:current-layer="layer1" />
  <defs
     id="defs2" />
  <g
     inkscape:label="Layer 1"
     inkscape:groupmode="layer"
     id="layer1">
    <path
       id="path846"
       style="fill:#000000;stroke-width:0.661458;stroke-linecap:round"
       d="M 67.733335,0.26458383 A 67.468749,67.468749 0 0 0 0.26458283,67.733333 67.468749,67.468749 0 0 0 67.733335,135.20208 67.468749,67.468749 0 0 0 135.20208,67.733333 67.468749,67.468749 0 0 0 67.733335,0.26458383 Z m 0,21.16666617 A 46.302083,46.302083 0 0 1 114.03542,67.733333 46.302083,46.302083 0 0 1 67.733335,114.03542 46.302083,46.302083 0 0 1 21.431253,67.733333 46.302083,46.302083 0 0 1 67.733335,21.43125 Z" />
    <path
       id="path846-1"
       style="fill:#ffffff;stroke-width:0.661458;stroke-linecap:round"
       d="M 67.733333,2.9104173 A 64.822913,64.822913 0 0 0 2.9104173,67.733334 64.822913,64.822913 0 0 0 67.733333,132.55625 64.822913,64.822913 0 0 0 132.55625,67.733334 64.822913,64.822913 0 0 0 67.733333,2.9104173 Z m 0,18.5208327 A 46.302083,46.302083 0 0 1 114.03542,67.733334 46.302083,46.302083 0 0 1 67.733333,114.03542 46.302083,46.302083 0 0 1 21.43125,67.733334 46.302083,46.302083 0 0 1 67.733333,21.43125 Z" />
    <path
       id="path846-2"
       style="fill:#000000;stroke-width:0.661458;stroke-linecap:round"
       d="M 67.733333,18.785418 A 48.947916,48.947916 0 0 0 18.785417,67.733338 48.947916,48.947916 0 0 0 67.733333,116.68125 48.947916,48.947916 0 0 0 116.68125,67.733338 48.947916,48.947916 0 0 0 67.733333,18.785418 Z m 0,2.645833 A 46.302083,46.302083 0 0 1 114.03542,67.733338 46.302083,46.302083 0 0 1 67.733333,114.03542 46.302083,46.302083 0 0 1 21.431251,67.733338 46.302083,46.302083 0 0 1 67.733333,21.431251 Z" />
    <circle
       style="fill:#ff0000;stroke-width:0.661458;stroke-linecap:round"
       id="circle1716"
       cx="-67.765686"
       cy="57.526245"
       inkscape:export-filename="C:\Diplomka\Brooom\Brooom\Sprites\minimap_hoop.png"
       inkscape:export-xdpi="96"
       inkscape:export-ydpi="96"
       r="46.302082" />
  </g>
</svg>
